HIERARCHY
ROOT Hips
{
	OFFSET 0.00000 0.00000 0.00000
	CHANNELS 6 Xposition Yposition Zposition Yrotation Zrotation Xrotation 
	JOINT Lumbar
	{
		OFFSET 0 0 0
		CHANNELS 3 Zrotation Xrotation Yrotation
		JOINT Neck
		{
			OFFSET 0.00 0.2701 0.00
			CHANNELS 3 Zrotation Xrotation Yrotation
			End Site
			{
				OFFSET 0.00 0.1379 0.00
			}
		}
		JOINT RightShoulder
		{
			OFFSET 0.0119 0.2289 0.1181
			CHANNELS 3 Zrotation Xrotation Yrotation
			JOINT RightElbow
			{
				OFFSET 0.00 -0.1475 0.00
				CHANNELS 2 Zrotation Yrotation
				JOINT RightWrist
				{
					OFFSET 0.00 -0.1605 0.00
					CHANNELS 2 Zrotation Xrotation
					End Site
					{
						OFFSET 0.0040 -0.1068 0.0006
					}
				}
			}
		}
		JOINT LeftShoulder
		{
			OFFSET 0.0119 0.2289 -0.1181
			CHANNELS 3 Zrotation Xrotation Yrotation
			JOINT LeftElbow
			{
				OFFSET 0.00 -0.1475 0.00
				CHANNELS 2 Zrotation Yrotation
				JOINT LeftWrist
				{
					OFFSET 0.00 -0.1605 0.00
					CHANNELS 2 Zrotation Xrotation
					End Site
					{
						OFFSET 0.0040 -0.1068 -0.0006
					}
				}
			}
		}
	}
	JOINT RightHip
	{
		OFFSET 0.0316 -0.0424 0.0458
		CHANNELS 3 Zrotation Xrotation Yrotation
		JOINT RightKnee
		{
			OFFSET 0.00 -0.2438 0.00
			CHANNELS 1 Zrotation
			JOINT RightAnkle
			{
				OFFSET 0.00 -0.2449 0.00
				CHANNELS 3 Zrotation Xrotation Yrotation
				End Site
				{
					OFFSET 0.1237 -0.0542 0.0051
				}
			}
		}
	}
	JOINT LeftHip
	{
		OFFSET 0.0316 -0.0424 -0.0458
		CHANNELS 3 Zrotation Xrotation Yrotation
		JOINT LeftKnee
		{
			OFFSET 0.00 -0.2438 0.00
			CHANNELS 1 Zrotation
			JOINT LeftAnkle
			{
				OFFSET 0.00 -0.2449 0.00
				CHANNELS 3 Zrotation Xrotation Yrotation
				End Site
				{
					OFFSET 0.1237 -0.0542 -0.0051
				}
			}
		}
	}
}
MOTION
Frames: 20
Frame Time: 0.02
-0 0.57926 0 184.97901 0 -3.61715 3.98517 3.09134 -3.63646 -29.08447 4.7604 1.79935 -24.57729 -72.61184 -88.71458 18.29558 36.78795 -35.15623 1.31307 12.8402 70.23127 77.82364 21.72494 -69.73607 -24.32834 1.97333 -3.64362 5.79056 -1.98056 -7.62489 3.36046 -5.55736 -9.99741 -2.81556 4.55072 2.19835 -6.20016 4.93322 5.15534 7.03637
0.0004 0.57931 1e-05 184.96855 0 -3.62401 3.93273 3.0964 -3.57248 -29.083 4.62858 1.73053 -24.4532 -72.45536 -88.71247 18.38982 36.54768 -35.1025 1.64976 12.9204 70.39657 77.67798 21.64761 -69.68078 -24.36199 1.96404 -3.593 5.79442 -1.90671 -7.64255 3.32312 -5.55489 -10.0478 -2.76876 4.5526 2.19 -6.21619 4.90513 5.14877 7.05103
0.00081 0.57935 3e-05 184.9582 0 -3.63083 3.88036 3.10141 -3.50887 -29.0819 4.49768 1.66216 -24.3293 -72.30023 -88.71039 18.48339 36.30975 -35.04917 1.98355 13.00086 70.56078 77.53245 21.5709 -69.62606 -24.39536 1.95487 -3.54249 5.79822 -1.83348 -7.66011 3.28591 -5.55239 -10.09767 -2.72203 4.55446 2.18167 -6.23216 4.87706 5.14221 7.06558
0.00121 0.57939 4e-05 184.94858 0 -3.63747 3.82821 3.10611 -3.44641 -29.08254 4.36944 1.59491 -24.20635 -72.14913 -88.7084 18.57478 36.07812 -34.99724 2.30861 13.08264 70.72187 77.38689 21.49618 -69.57303 -24.42772 1.94588 -3.4923 5.80179 -1.76263 -7.67731 3.24918 -5.5499 -10.14565 -2.67527 4.55626 2.1733 -6.24802 4.84901 5.13567 7.07948
0.00161 0.57944 5e-05 184.93559 0 -3.64497 3.77549 3.11229 -3.3782 -29.07431 4.22748 1.52168 -24.0801 -71.97686 -88.70592 18.67724 35.81223 -34.9383 2.67947 13.15681 70.89903 77.24256 21.41126 -69.51098 -24.46515 1.93571 -3.44086 5.80655 -1.67996 -7.69627 3.21032 -5.5475 -10.20326 -2.62887 4.55836 2.16509 -6.26446 4.82107 5.12906 7.09643
0.00202 0.57948 6e-05 184.9294 0 -3.65069 3.72361 3.11545 -3.32199 -29.08459 4.11443 1.46124 -23.95976 -71.84942 -88.70449 18.7565 35.6197 -34.89397 2.95338 13.24743 71.04232 77.09504 21.34776 -69.46812 -24.492 1.9282 -3.3918 5.80883 -1.6218 -7.71161 3.17574 -5.54485 -10.24068 -2.58159 4.55985 2.15659 -6.27965 4.79279 5.12261 7.10715
0.00243 0.57951 5e-05 184.94531 0 -3.651 3.67597 3.10918 -3.30059 -29.15015 4.08308 1.43512 -23.86172 -71.84786 -88.70585 18.76872 35.62662 -34.89246 2.95462 13.3848 71.09012 76.93989 21.3456 -69.47886 -24.48786 1.92682 -3.35084 5.80379 -1.63703 -7.71599 3.15459 -5.54197 -10.21943 -2.53164 4.55941 2.14677 -6.29197 4.76395 5.11632 7.09843
0.00284 0.57953 4e-05 184.96748 0 -3.64959 3.62866 3.10008 -3.29095 -29.23359 4.08053 1.42205 -23.76758 -71.89118 -88.70831 18.758 35.7083 -34.90514 2.85879 13.53916 71.10418 76.78069 21.36455 -69.50896 -24.47336 1.92834 -3.31186 5.79635 -1.67595 -7.71697 3.13744 -5.53875 -10.1783 -2.48073 4.5584 2.13676 -6.30301 4.73464 5.11022 7.08381
0.00326 0.57956 2e-05 184.98465 0 -3.64927 3.58 3.09297 -3.27483 -29.3063 4.06362 1.40363 -23.6687 -71.9126 -88.71035 18.75978 35.75774 -34.9099 2.81072 13.68447 71.13493 76.62291 21.37255 -69.52976 -24.46479 1.92938 -3.27102 5.79034 -1.70037 -7.72003 3.11734 -5.53535 -10.14812 -2.43042 4.5578 2.1271 -6.31424 4.70527 5.10421 7.07335
0.00366 0.57959 1e-05 185.01098 0 -3.64763 3.53684 3.08283 -3.2636 -29.39036 4.0522 1.38284 -23.58584 -71.94035 -88.71202 18.75305 35.79949 -34.92134 2.74768 13.83347 71.15972 76.4687 21.38673 -69.55241 -24.45114 1.92697 -3.23458 5.78291 -1.74066 -7.72054 3.10197 -5.5333 -10.10985 -2.37967 4.55655 2.11622 -6.32689 4.67715 5.09748 7.05673
0.0041 0.57961 -0 185.01965 0 -3.64836 3.48177 3.0784 -3.24485 -29.45457 4.03602 1.37001 -23.46617 -71.96559 -88.71473 18.75829 35.87547 -34.92165 2.69223 13.9812 71.18916 76.30391 21.39251 -69.57616 -24.44552 1.9323 -3.18904 5.77786 -1.75339 -7.72592 3.07775 -5.52843 -10.08372 -2.32928 4.55654 2.10799 -6.33655 4.64623 5.09226 7.05144
0.00463 0.57965 -2e-05 184.97834 0 -3.65586 3.398 3.08992 -3.20371 -29.46321 4.001 1.37646 -23.27846 -71.97279 -88.72033 18.8052 36.02658 -34.8922 2.68543 14.10112 71.23778 76.12874 21.37468 -69.59502 -24.46553 1.95949 -3.12112 5.77989 -1.68516 -7.7425 3.02763 -5.51516 -10.09599 -2.28285 4.55987 2.10573 -6.33629 4.60833 5.09148 7.07972
0.0052 0.57969 -5e-05 184.91895 0 -3.66584 3.30122 3.10739 -3.15438 -29.45029 3.95996 1.39038 -23.04528 -71.9759 -88.72706 18.86463 36.21178 -34.84992 2.6885 14.22301 71.29264 75.93927 21.34689 -69.61478 -24.49391 1.9941 -3.04325 5.78442 -1.58816 -7.76476 2.96855 -5.49916 -10.12118 -2.23619 4.56451 2.10641 -6.33355 4.56753 5.09214 7.11946
0.00576 0.57973 -7e-05 184.86767 0 -3.67479 3.20785 3.12246 -3.10799 -29.44526 3.9208 1.40059 -22.81261 -71.98102 -88.73288 18.91601 36.37955 -34.81092 2.68487 14.35713 71.34588 75.74521 21.32044 -69.63641 -24.51772 2.02456 -2.96795 5.78785 -1.50372 -7.78636 2.91387 -5.48485 -10.1404 -2.18799 4.5687 2.10666 -6.33314 4.5276 5.09194 7.15336
0.00628 0.57977 -0.0001 184.81717 0 -3.68327 3.12592 3.13611 -3.06532 -29.45013 3.88621 1.41262 -22.67272 -71.98723 -88.73973 18.97551 36.54986 -34.78434 2.68864 14.43614 71.39268 75.59971 21.30779 -69.64966 -24.54399 2.05854 -2.90143 5.79103 -1.42238 -7.79937 2.85796 -5.46869 -10.15921 -2.14713 4.57225 2.10306 -6.32721 4.48946 5.09266 7.18964
0.00691 0.57981 -0.00012 184.76054 0 -3.69335 3.01599 3.15422 -3.01281 -29.42747 3.84033 1.4224 -22.31924 -71.98939 -88.74555 19.02266 36.73236 -34.72721 2.67882 14.63055 71.45496 75.34738 21.26427 -69.67963 -24.56777 2.08677 -2.81366 5.79538 -1.32733 -7.83208 2.8024 -5.45567 -10.18236 -2.09039 4.57742 2.10822 -6.33268 4.44699 5.09172 7.22386
0.00778 0.57987 -0.00017 184.69246 0 -3.70728 2.84068 3.18295 -2.93467 -29.34671 3.76442 1.4245 -21.46915 -71.98289 -88.73836 19.0224 36.85072 -34.60057 2.64521 15.14047 71.5572 74.82136 21.13426 -69.76233 -24.579 2.09876 -2.6743 5.80222 -1.20222 -7.91454 2.75029 -5.45261 -10.21311 -1.99457 4.58689 2.1366 -6.36628 4.39234 5.08672 7.24865
0.00877 0.57993 -0.00023 184.61859 0 -3.72272 2.63579 3.21604 -2.84683 -29.23619 3.67724 1.42389 -20.39105 -71.97173 -88.73025 19.01172 36.9962 -34.44104 2.59534 15.76728 71.67509 74.18355 20.97478 -69.86109 -24.58867 2.10457 -2.51291 5.81018 -1.06399 -8.01735 2.69878 -5.45269 -10.24816 -1.88182 4.59788 2.17387 -6.41218 4.33349 5.07984 7.27109
0.00972 0.57998 -0.00029 184.54669 0 -3.73748 2.43898 3.24735 -2.76382 -29.13129 3.59537 1.42428 -19.36261 -71.96177 -88.73112 19.01213 37.18796 -34.28923 2.54246 16.3417 71.78699 73.58718 20.83025 -69.94713 -24.60088 2.11207 -2.35869 5.81778 -0.93117 -8.11287 2.6468 -5.45093 -10.2821 -1.7738 4.60811 2.20708 -6.45504 4.2773 5.07323 7.29535
0.0106 0.58004 -0.00034 184.47708 0 -3.75239 2.26524 3.27801 -2.67922 -29.06035 3.5127 1.42614 -18.55745 -71.95646 -88.70269 18.98448 37.13478 -34.16885 2.53262 16.91142 71.89489 73.03595 20.67604 -70.05351 -24.60361 2.12399 -2.21658 5.82495 -0.79985 -8.19991 2.59534 -5.45081 -10.31273 -1.67854 4.61877 2.23995 -6.48701 4.21829 5.0691 7.31718
